<?xml version="1.0" encoding="utf-8"?>
<svg xmlns="http://www.w3.org/2000/svg" width="48px" height="48px" viewBox="-13.525 -8.347 78.643 64.694" version="1.1">
  <g id="surface1" transform="matrix(1, 0, 0, 1, 0.105665, -0.316994)">
    <path style=" stroke:none;fill-rule:nonzero;fill:rgb(72.941178%,67.843139%,49.019608%);fill-opacity:1;" d="M 22.078125 32.929688 L 25.925781 32.929688 L 25.925781 37.136719 L 22.078125 37.136719 Z M 22.078125 32.929688 "/>
    <path style="stroke: none; fill-rule: nonzero; fill-opacity: 1; fill: rgb(68, 45, 30);" d="M 18.304688 10.625 L 4.585938 10.625 C 4.035156 10.625 3.589844 11.070312 3.589844 11.617188 L 3.589844 36.136719 C 3.589844 36.402344 3.695312 36.65625 3.878906 36.84375 C 4.066406 37.03125 4.320312 37.136719 4.585938 37.136719 L 22.078125 37.136719 L 22.078125 34.757812 C 22.078125 34.71875 22.074219 34.679688 22.070312 34.640625 L 19.292969 11.5 C 19.234375 11 18.808594 10.625 18.304688 10.625 Z M 18.304688 10.625 "/>
    <path style="stroke: none; fill-rule: nonzero; fill-opacity: 1; fill: rgb(68, 45, 30);" d="M 30.882812 11.414062 L 25.945312 34.597656 C 25.929688 34.664062 25.921875 34.734375 25.921875 34.804688 L 25.921875 37.136719 L 43.414062 37.136719 C 43.679688 37.136719 43.933594 37.03125 44.121094 36.84375 C 44.304688 36.65625 44.410156 36.402344 44.410156 36.136719 L 44.410156 11.617188 C 44.410156 11.070312 43.964844 10.625 43.414062 10.625 L 31.855469 10.625 C 31.386719 10.621094 30.976562 10.953125 30.882812 11.414062 Z M 30.882812 11.414062 "/>
    <path style=" stroke:none;fill-rule:nonzero;fill:rgb(85.490197%,69.411767%,24.313726%);fill-opacity:1;" d="M 31.046875 10.625 L 25.921875 34.699219 L 25.921875 32.929688 L 22.078125 32.929688 L 22.078125 34.699219 L 19.1875 10.625 L 5.285156 10.625 L 5.285156 36.476562 L 6.285156 36.066406 C 11.71875 33.832031 17.796875 33.765625 23.273438 35.886719 L 24 36.179688 L 24.726562 35.886719 C 30.203125 33.765625 36.28125 33.832031 41.714844 36.066406 L 42.714844 36.476562 L 42.714844 10.625 Z M 31.046875 10.625 "/>
    <path style="stroke: none; fill-rule: nonzero; fill-opacity: 1; fill: rgb(226, 217, 175);" d="M 24 35.394531 C 18.238281 33.023438 11.773438 33.023438 6.011719 35.394531 L 6.011719 8.566406 C 11.773438 6.195312 18.238281 6.195312 24 8.566406 Z M 24 35.394531 "/>
    <path style=" stroke:none;fill-rule:nonzero;fill:rgb(95.686275%,76.078433%,24.705882%);fill-opacity:1;" d="M 37.800781 39.246094 L 36.574219 38.226562 L 35.355469 39.246094 C 34.9375 39.59375 34.308594 39.300781 34.308594 38.757812 L 34.308594 31.824219 L 38.84375 31.824219 L 38.84375 38.757812 C 38.84375 39.300781 38.214844 39.59375 37.800781 39.246094 Z M 37.800781 39.246094 "/>
    <path style=" stroke:none;fill-rule:nonzero;fill:rgb(82.745099%,61.960787%,33.333334%);fill-opacity:1;" d="M 34.308594 34.378906 C 35.839844 34.464844 37.359375 34.707031 38.84375 35.101562 L 38.84375 31.824219 L 34.308594 31.824219 Z M 34.308594 34.378906 "/>
    <path style="stroke: none; fill-rule: nonzero; fill-opacity: 1; fill: rgb(226, 217, 175);" d="M 24 35.394531 C 29.761719 33.023438 36.226562 33.023438 41.988281 35.394531 L 41.988281 8.566406 C 36.226562 6.195312 29.761719 6.195312 24 8.566406 Z M 24 35.394531 "/>
    <path style="stroke: none; fill-rule: nonzero; fill-opacity: 1; fill: rgb(204, 194, 145);" d="M 7.507812 9.910156 L 7.507812 8.011719 C 7.003906 8.179688 6.503906 8.363281 6.011719 8.566406 L 6.011719 35.394531 C 11.808594 33.21875 18.199219 33.21875 24 35.394531 L 24 32.554688 L 23.839844 32.5 C 14.082031 29.3125 7.507812 20.171875 7.507812 9.910156 Z M 7.507812 9.910156 "/>
    <path style="stroke: none; fill-rule: nonzero; fill-opacity: 1; fill: rgb(204, 194, 145);" d="M 25.5 9.910156 L 25.5 8.011719 C 24.992188 8.179688 24.492188 8.363281 24 8.566406 L 24 35.394531 C 29.800781 33.21875 36.191406 33.21875 41.988281 35.394531 L 41.988281 32.554688 L 41.828125 32.5 C 32.070312 29.3125 25.5 20.171875 25.5 9.910156 Z M 25.5 9.910156 "/>
    <path style=" stroke:none;fill-rule:nonzero;fill:rgb(89.411765%,86.666667%,72.549021%);fill-opacity:1;" d="M 8.976562 14.023438 C 8.746094 14.023438 8.550781 13.859375 8.511719 13.636719 C 8.472656 13.414062 8.597656 13.191406 8.8125 13.113281 C 12.71875 11.675781 17.011719 11.675781 20.917969 13.113281 C 21.160156 13.203125 21.285156 13.472656 21.195312 13.714844 C 21.105469 13.960938 20.835938 14.085938 20.59375 13.996094 C 16.894531 12.628906 12.832031 12.628906 9.136719 13.996094 C 9.085938 14.011719 9.03125 14.023438 8.976562 14.023438 Z M 8.976562 14.023438 "/>
    <path style=" stroke:none;fill-rule:nonzero;fill:rgb(89.411765%,86.666667%,72.549021%);fill-opacity:1;" d="M 8.976562 18.988281 C 8.746094 18.988281 8.550781 18.824219 8.511719 18.601562 C 8.472656 18.375 8.597656 18.15625 8.8125 18.078125 C 12.71875 16.636719 17.011719 16.636719 20.917969 18.078125 C 21.082031 18.128906 21.203125 18.269531 21.234375 18.4375 C 21.265625 18.609375 21.203125 18.78125 21.070312 18.890625 C 20.933594 18.996094 20.753906 19.023438 20.59375 18.957031 C 16.894531 17.59375 12.832031 17.59375 9.136719 18.957031 C 9.085938 18.976562 9.03125 18.988281 8.976562 18.988281 Z M 8.976562 18.988281 "/>
    <path style=" stroke:none;fill-rule:nonzero;fill:rgb(89.411765%,86.666667%,72.549021%);fill-opacity:1;" d="M 8.976562 23.949219 C 8.75 23.945312 8.558594 23.785156 8.519531 23.5625 C 8.480469 23.339844 8.601562 23.121094 8.8125 23.042969 C 12.71875 21.601562 17.011719 21.601562 20.917969 23.042969 C 21.082031 23.09375 21.203125 23.234375 21.234375 23.402344 C 21.265625 23.570312 21.203125 23.746094 21.070312 23.851562 C 20.933594 23.960938 20.753906 23.988281 20.59375 23.921875 C 16.894531 22.554688 12.832031 22.554688 9.136719 23.921875 C 9.085938 23.9375 9.03125 23.949219 8.976562 23.949219 Z M 8.976562 23.949219 "/>
    <path style=" stroke:none;fill-rule:nonzero;fill:rgb(89.411765%,86.666667%,72.549021%);fill-opacity:1;" d="M 8.976562 28.914062 C 8.746094 28.914062 8.550781 28.75 8.511719 28.527344 C 8.472656 28.300781 8.597656 28.082031 8.8125 28.003906 C 12.71875 26.566406 17.011719 26.566406 20.917969 28.003906 C 21.160156 28.09375 21.285156 28.363281 21.195312 28.605469 C 21.105469 28.847656 20.835938 28.972656 20.59375 28.882812 C 16.894531 27.519531 12.832031 27.519531 9.136719 28.882812 C 9.085938 28.902344 9.03125 28.914062 8.976562 28.914062 Z M 8.976562 28.914062 "/>
    <path style=" stroke:none;fill-rule:nonzero;fill:rgb(89.411765%,86.666667%,72.549021%);fill-opacity:1;" d="M 38.746094 14.023438 C 38.6875 14.023438 38.632812 14.011719 38.582031 13.996094 C 34.886719 12.628906 30.824219 12.628906 27.125 13.996094 C 26.882812 14.085938 26.613281 13.960938 26.523438 13.714844 C 26.433594 13.472656 26.558594 13.203125 26.800781 13.113281 C 30.707031 11.675781 35 11.675781 38.90625 13.113281 C 39.121094 13.191406 39.246094 13.414062 39.207031 13.636719 C 39.167969 13.859375 38.972656 14.023438 38.746094 14.023438 Z M 38.746094 14.023438 "/>
    <path style=" stroke:none;fill-rule:nonzero;fill:rgb(89.411765%,86.666667%,72.549021%);fill-opacity:1;" d="M 38.746094 18.988281 C 38.6875 18.988281 38.632812 18.976562 38.582031 18.957031 C 34.886719 17.59375 30.824219 17.59375 27.125 18.957031 C 26.96875 19.023438 26.785156 18.996094 26.648438 18.890625 C 26.515625 18.78125 26.453125 18.609375 26.484375 18.4375 C 26.515625 18.269531 26.636719 18.128906 26.800781 18.078125 C 30.707031 16.636719 35 16.636719 38.90625 18.078125 C 39.121094 18.15625 39.246094 18.375 39.207031 18.601562 C 39.167969 18.824219 38.972656 18.988281 38.746094 18.988281 Z M 38.746094 18.988281 "/>
    <path style=" stroke:none;fill-rule:nonzero;fill:rgb(89.411765%,86.666667%,72.549021%);fill-opacity:1;" d="M 38.746094 23.949219 C 38.6875 23.949219 38.632812 23.9375 38.582031 23.921875 C 34.886719 22.554688 30.824219 22.554688 27.125 23.921875 C 26.96875 23.988281 26.785156 23.960938 26.648438 23.851562 C 26.515625 23.746094 26.453125 23.570312 26.484375 23.402344 C 26.515625 23.234375 26.636719 23.09375 26.800781 23.042969 C 30.707031 21.601562 35 21.601562 38.90625 23.042969 C 39.117188 23.121094 39.242188 23.339844 39.199219 23.5625 C 39.160156 23.785156 38.96875 23.945312 38.746094 23.949219 Z M 38.746094 23.949219 "/>
    <path style=" stroke:none;fill-rule:nonzero;fill:rgb(89.411765%,86.666667%,72.549021%);fill-opacity:1;" d="M 38.746094 28.914062 C 38.6875 28.914062 38.632812 28.902344 38.582031 28.882812 C 34.886719 27.519531 30.824219 27.519531 27.125 28.882812 C 26.882812 28.972656 26.613281 28.847656 26.523438 28.605469 C 26.433594 28.363281 26.558594 28.09375 26.800781 28.003906 C 30.707031 26.566406 35 26.566406 38.90625 28.003906 C 39.121094 28.082031 39.246094 28.300781 39.207031 28.527344 C 39.167969 28.75 38.972656 28.914062 38.746094 28.914062 Z M 38.746094 28.914062 "/>
    <path style=" stroke:none;fill-rule:nonzero;fill:rgb(99.607843%,97.647059%,88.235295%);fill-opacity:1;" d="M 39 13.625 C 38.945312 13.625 38.890625 13.617188 38.839844 13.597656 C 35.144531 12.234375 31.082031 12.234375 27.382812 13.597656 C 27.140625 13.6875 26.871094 13.5625 26.78125 13.316406 C 26.691406 13.074219 26.816406 12.804688 27.058594 12.714844 C 30.964844 11.277344 35.257812 11.277344 39.164062 12.714844 C 39.378906 12.792969 39.503906 13.015625 39.464844 13.238281 C 39.425781 13.460938 39.230469 13.625 39 13.625 Z M 39 13.625 "/>
    <path style=" stroke:none;fill-rule:nonzero;fill:rgb(99.607843%,97.647059%,88.235295%);fill-opacity:1;" d="M 39 18.589844 C 38.945312 18.589844 38.890625 18.578125 38.839844 18.558594 C 35.144531 17.195312 31.082031 17.195312 27.382812 18.558594 C 27.222656 18.625 27.042969 18.597656 26.90625 18.492188 C 26.773438 18.382812 26.710938 18.210938 26.742188 18.039062 C 26.773438 17.871094 26.894531 17.734375 27.058594 17.679688 C 30.964844 16.238281 35.257812 16.238281 39.164062 17.679688 C 39.378906 17.757812 39.503906 17.976562 39.464844 18.203125 C 39.425781 18.425781 39.230469 18.589844 39 18.589844 Z M 39 18.589844 "/>
    <path style=" stroke:none;fill-rule:nonzero;fill:rgb(99.607843%,97.647059%,88.235295%);fill-opacity:1;" d="M 39 23.550781 C 38.945312 23.550781 38.890625 23.539062 38.839844 23.523438 C 35.144531 22.15625 31.082031 22.15625 27.382812 23.523438 C 27.222656 23.589844 27.042969 23.5625 26.90625 23.453125 C 26.773438 23.347656 26.710938 23.171875 26.742188 23.003906 C 26.773438 22.835938 26.894531 22.695312 27.058594 22.644531 C 30.964844 21.203125 35.257812 21.203125 39.164062 22.644531 C 39.375 22.722656 39.496094 22.941406 39.457031 23.164062 C 39.417969 23.386719 39.226562 23.546875 39 23.550781 Z M 39 23.550781 "/>
    <path style=" stroke:none;fill-rule:nonzero;fill:rgb(99.607843%,97.647059%,88.235295%);fill-opacity:1;" d="M 39 28.515625 C 38.945312 28.515625 38.890625 28.503906 38.839844 28.484375 C 35.144531 27.121094 31.082031 27.121094 27.382812 28.484375 C 27.140625 28.574219 26.871094 28.449219 26.78125 28.207031 C 26.691406 27.964844 26.816406 27.695312 27.058594 27.605469 C 30.964844 26.167969 35.257812 26.167969 39.164062 27.605469 C 39.378906 27.683594 39.503906 27.902344 39.464844 28.128906 C 39.425781 28.351562 39.230469 28.515625 39 28.515625 Z M 39 28.515625 "/>
    <path style=" stroke:none;fill-rule:nonzero;fill:rgb(99.607843%,97.647059%,88.235295%);fill-opacity:1;" d="M 9.230469 13.625 C 9.003906 13.625 8.808594 13.460938 8.769531 13.238281 C 8.730469 13.015625 8.855469 12.792969 9.070312 12.714844 C 12.976562 11.277344 17.269531 11.277344 21.175781 12.714844 C 21.417969 12.804688 21.542969 13.074219 21.453125 13.316406 C 21.363281 13.5625 21.09375 13.6875 20.851562 13.597656 C 17.152344 12.234375 13.089844 12.234375 9.394531 13.597656 C 9.34375 13.617188 9.289062 13.625 9.230469 13.625 Z M 9.230469 13.625 "/>
    <path style=" stroke:none;fill-rule:nonzero;fill:rgb(99.607843%,97.647059%,88.235295%);fill-opacity:1;" d="M 9.230469 18.589844 C 9.003906 18.589844 8.808594 18.425781 8.769531 18.203125 C 8.730469 17.976562 8.855469 17.757812 9.070312 17.679688 C 12.976562 16.238281 17.269531 16.238281 21.175781 17.679688 C 21.339844 17.734375 21.460938 17.871094 21.492188 18.039062 C 21.523438 18.210938 21.460938 18.382812 21.328125 18.492188 C 21.191406 18.597656 21.007812 18.625 20.851562 18.558594 C 17.152344 17.195312 13.089844 17.195312 9.394531 18.558594 C 9.34375 18.578125 9.289062 18.589844 9.230469 18.589844 Z M 9.230469 18.589844 "/>
    <path style=" stroke:none;fill-rule:nonzero;fill:rgb(99.607843%,97.647059%,88.235295%);fill-opacity:1;" d="M 9.230469 23.550781 C 9.007812 23.546875 8.816406 23.386719 8.777344 23.164062 C 8.734375 22.941406 8.859375 22.722656 9.070312 22.644531 C 12.976562 21.203125 17.269531 21.203125 21.175781 22.644531 C 21.339844 22.695312 21.460938 22.835938 21.492188 23.003906 C 21.523438 23.171875 21.460938 23.347656 21.328125 23.453125 C 21.191406 23.5625 21.007812 23.589844 20.851562 23.523438 C 17.152344 22.15625 13.089844 22.15625 9.394531 23.523438 C 9.34375 23.539062 9.289062 23.550781 9.230469 23.550781 Z M 9.230469 23.550781 "/>
    <path style=" stroke:none;fill-rule:nonzero;fill:rgb(99.607843%,97.647059%,88.235295%);fill-opacity:1;" d="M 9.230469 28.515625 C 9.003906 28.515625 8.808594 28.351562 8.769531 28.128906 C 8.730469 27.902344 8.855469 27.683594 9.070312 27.605469 C 12.976562 26.167969 17.269531 26.167969 21.175781 27.605469 C 21.417969 27.695312 21.542969 27.964844 21.453125 28.207031 C 21.363281 28.449219 21.09375 28.574219 20.851562 28.484375 C 17.152344 27.121094 13.089844 27.121094 9.394531 28.484375 C 9.34375 28.503906 9.289062 28.515625 9.230469 28.515625 Z M 9.230469 28.515625 "/>
    <path style="stroke: none; fill-rule: nonzero; fill-opacity: 1; fill: rgb(174, 161, 115);" d="M 38.882812 13.789062 C 38.828125 13.789062 38.773438 13.777344 38.722656 13.761719 C 35.027344 12.398438 30.964844 12.398438 27.265625 13.761719 C 27.023438 13.851562 26.753906 13.726562 26.664062 13.480469 C 26.574219 13.238281 26.699219 12.96875 26.941406 12.878906 C 30.847656 11.441406 35.140625 11.441406 39.046875 12.878906 C 39.261719 12.957031 39.386719 13.179688 39.347656 13.402344 C 39.308594 13.625 39.113281 13.789062 38.882812 13.789062 Z M 38.882812 13.789062 "/>
    <path style="stroke: none; fill-rule: nonzero; fill-opacity: 1; fill: rgb(174, 161, 115);" d="M 38.882812 18.753906 C 38.828125 18.753906 38.773438 18.742188 38.722656 18.722656 C 35.027344 17.359375 30.964844 17.359375 27.265625 18.722656 C 27.109375 18.789062 26.925781 18.761719 26.789062 18.65625 C 26.65625 18.546875 26.59375 18.375 26.625 18.203125 C 26.65625 18.035156 26.777344 17.894531 26.941406 17.84375 C 30.847656 16.402344 35.140625 16.402344 39.046875 17.84375 C 39.261719 17.921875 39.386719 18.140625 39.347656 18.367188 C 39.308594 18.589844 39.113281 18.753906 38.882812 18.753906 Z M 38.882812 18.753906 "/>
    <path style="stroke: none; fill-rule: nonzero; fill-opacity: 1; fill: rgb(174, 161, 115);" d="M 38.882812 23.714844 C 38.828125 23.714844 38.773438 23.703125 38.722656 23.6875 C 35.027344 22.320312 30.964844 22.320312 27.265625 23.6875 C 27.109375 23.753906 26.925781 23.726562 26.789062 23.617188 C 26.65625 23.511719 26.59375 23.335938 26.625 23.167969 C 26.65625 23 26.777344 22.859375 26.941406 22.808594 C 30.847656 21.367188 35.140625 21.367188 39.046875 22.808594 C 39.257812 22.886719 39.378906 23.105469 39.339844 23.328125 C 39.300781 23.550781 39.109375 23.710938 38.882812 23.714844 Z M 38.882812 23.714844 "/>
    <path style="stroke: none; fill-rule: nonzero; fill-opacity: 1; fill: rgb(174, 161, 115);" d="M 38.882812 28.679688 C 38.828125 28.679688 38.773438 28.667969 38.722656 28.648438 C 35.027344 27.285156 30.964844 27.285156 27.265625 28.648438 C 27.023438 28.738281 26.753906 28.613281 26.664062 28.371094 C 26.574219 28.128906 26.699219 27.859375 26.941406 27.769531 C 30.847656 26.332031 35.140625 26.332031 39.046875 27.769531 C 39.261719 27.847656 39.386719 28.066406 39.347656 28.292969 C 39.308594 28.515625 39.113281 28.679688 38.882812 28.679688 Z M 38.882812 28.679688 "/>
    <path style=" stroke:none;fill-rule:nonzero;fill:rgb(99.607843%,97.647059%,88.235295%);fill-opacity:1;" d="M 41.03125 9.957031 C 41.558594 9.957031 41.988281 10.386719 41.988281 10.914062 L 41.988281 21.765625 C 41.988281 22.292969 41.558594 22.722656 41.03125 22.722656 C 40.503906 22.722656 40.078125 22.292969 40.078125 21.765625 L 40.078125 10.914062 C 40.078125 10.386719 40.503906 9.957031 41.03125 9.957031 Z M 41.03125 9.957031 "/>
    <path style=" stroke:none;fill-rule:nonzero;fill:rgb(99.607843%,97.647059%,88.235295%);fill-opacity:1;" d="M 23.320312 11.292969 C 23.695312 11.292969 24 11.597656 24 11.972656 L 24 18.871094 C 24 19.246094 23.695312 19.550781 23.320312 19.550781 C 22.945312 19.550781 22.640625 19.246094 22.640625 18.871094 L 22.640625 11.972656 C 22.640625 11.597656 22.945312 11.292969 23.320312 11.292969 Z M 23.320312 11.292969 "/>
    <path style="stroke: none; fill-rule: nonzero; fill-opacity: 1; fill: rgb(174, 161, 115);" d="M 9.117188 13.789062 C 8.886719 13.789062 8.691406 13.625 8.652344 13.402344 C 8.613281 13.179688 8.738281 12.957031 8.953125 12.878906 C 12.859375 11.441406 17.152344 11.441406 21.058594 12.878906 C 21.300781 12.96875 21.425781 13.238281 21.335938 13.480469 C 21.246094 13.726562 20.976562 13.851562 20.734375 13.761719 C 17.035156 12.398438 12.972656 12.398438 9.277344 13.761719 C 9.226562 13.777344 9.171875 13.789062 9.117188 13.789062 Z M 9.117188 13.789062 "/>
    <path style="stroke: none; fill-rule: nonzero; fill-opacity: 1; fill: rgb(174, 161, 115);" d="M 9.117188 18.753906 C 8.886719 18.753906 8.691406 18.589844 8.652344 18.367188 C 8.613281 18.140625 8.738281 17.921875 8.953125 17.84375 C 12.859375 16.402344 17.152344 16.402344 21.058594 17.84375 C 21.222656 17.894531 21.34375 18.035156 21.375 18.203125 C 21.40625 18.375 21.34375 18.546875 21.210938 18.65625 C 21.074219 18.761719 20.890625 18.789062 20.734375 18.722656 C 17.035156 17.359375 12.972656 17.359375 9.277344 18.722656 C 9.226562 18.742188 9.171875 18.753906 9.117188 18.753906 Z M 9.117188 18.753906 "/>
    <path style="stroke: none; fill-rule: nonzero; fill-opacity: 1; fill: rgb(174, 161, 115);" d="M 9.117188 23.714844 C 8.890625 23.710938 8.699219 23.550781 8.660156 23.328125 C 8.621094 23.105469 8.742188 22.886719 8.953125 22.808594 C 12.859375 21.367188 17.152344 21.367188 21.058594 22.808594 C 21.222656 22.859375 21.34375 23 21.375 23.167969 C 21.40625 23.335938 21.34375 23.511719 21.210938 23.617188 C 21.074219 23.726562 20.890625 23.753906 20.734375 23.6875 C 17.035156 22.320312 12.972656 22.320312 9.277344 23.6875 C 9.226562 23.703125 9.171875 23.714844 9.117188 23.714844 Z M 9.117188 23.714844 "/>
    <path style="stroke: none; fill-rule: nonzero; fill-opacity: 1; fill: rgb(174, 161, 115);" d="M 9.117188 28.679688 C 8.886719 28.679688 8.691406 28.515625 8.652344 28.292969 C 8.613281 28.066406 8.738281 27.847656 8.953125 27.769531 C 12.859375 26.332031 17.152344 26.332031 21.058594 27.769531 C 21.300781 27.859375 21.425781 28.128906 21.335938 28.371094 C 21.246094 28.613281 20.976562 28.738281 20.734375 28.648438 C 17.035156 27.285156 12.972656 27.285156 9.277344 28.648438 C 9.226562 28.667969 9.171875 28.679688 9.117188 28.679688 Z M 9.117188 28.679688 "/>
    <path style=" stroke:none;fill-rule:nonzero;fill:rgb(98.039216%,83.529413%,39.215687%);fill-opacity:1;" d="M 38.382812 36.289062 C 38.636719 36.289062 38.84375 36.496094 38.84375 36.753906 L 38.84375 38.292969 C 38.84375 38.550781 38.636719 38.757812 38.382812 38.757812 C 38.128906 38.757812 37.921875 38.550781 37.921875 38.292969 L 37.921875 36.753906 C 37.921875 36.496094 38.128906 36.289062 38.382812 36.289062 Z M 38.382812 36.289062 "/>
    <path style="stroke: none; fill-rule: nonzero; fill-opacity: 1; fill: rgb(153, 134, 94);" d="M 43.964844 13.625 C 44.210938 13.625 44.410156 13.824219 44.410156 14.070312 L 44.410156 23.707031 C 44.410156 23.957031 44.210938 24.15625 43.964844 24.15625 C 43.714844 24.15625 43.515625 23.957031 43.515625 23.707031 L 43.515625 14.070312 C 43.515625 13.824219 43.714844 13.625 43.964844 13.625 Z M 43.964844 13.625 "/>
  </g>
  <ellipse style="fill-rule: nonzero; fill-opacity: 0; stroke-width: 3px; fill: rgb(68, 45, 30); stroke: rgb(68, 45, 30);" cx="24.18" cy="22.314" rx="27.79" ry="27.632"/>
</svg>