<?xml version="1.0" encoding="UTF-8"?>
<svg xmlns="http://www.w3.org/2000/svg" xmlns:xlink="http://www.w3.org/1999/xlink" width="48px" height="48px" viewBox="0 0 48 48" version="1.1">
<g id="surface1">
<path style=" stroke:none;fill-rule:evenodd;fill:rgb(26.666668%,17.647059%,11.764706%);fill-opacity:1;" d="M 4 24 C 4 14.570312 4 9.859375 6.929688 6.929688 C 9.859375 4 14.570312 4 24 4 C 33.429688 4 38.140625 4 41.070312 6.929688 C 44 9.859375 44 14.570312 44 24 C 44 33.429688 44 38.140625 41.070312 41.070312 C 38.140625 44 33.429688 44 24 44 C 14.570312 44 9.859375 44 6.929688 41.070312 C 4 38.140625 4 33.429688 4 24 Z M 24 35.5 C 24.828125 35.5 25.5 34.828125 25.5 34 L 25.5 23.621094 L 28.9375 27.0625 C 29.523438 27.644531 30.476562 27.644531 31.0625 27.0625 C 31.644531 26.476562 31.644531 25.523438 31.0625 24.9375 L 25.0625 18.9375 C 24.78125 18.65625 24.398438 18.5 24 18.5 C 23.601562 18.5 23.21875 18.65625 22.9375 18.9375 L 16.9375 24.9375 C 16.355469 25.523438 16.355469 26.476562 16.9375 27.0625 C 17.523438 27.644531 18.476562 27.644531 19.0625 27.0625 L 22.5 23.621094 L 22.5 34 C 22.5 34.828125 23.171875 35.5 24 35.5 Z M 16 15.5 C 15.171875 15.5 14.5 14.828125 14.5 14 C 14.5 13.171875 15.171875 12.5 16 12.5 L 32 12.5 C 32.828125 12.5 33.5 13.171875 33.5 14 C 33.5 14.828125 32.828125 15.5 32 15.5 Z M 16 15.5 "/>
</g>
</svg>
