<?xml version="1.0" encoding="utf-8"?>
<svg xmlns="http://www.w3.org/2000/svg" width="48px" height="48px" viewBox="0 0 48 48" version="1.1">
  <g id="surface1">
    <path style="stroke: none; fill-rule: nonzero; fill-opacity: 1; fill: rgb(68, 45, 30);" d="M 34.5 16.546875 C 34.5 15.71875 33.828125 15.046875 33 15.046875 L 28.5 15.046875 C 28.5 15.046875 28.550781 13.242188 28.550781 10.617188 C 28.550781 8.179688 26.53125 5.953125 24 5.953125 C 21.46875 5.953125 19.519531 8.070312 19.519531 10.601562 C 19.519531 13.039062 19.5 15.046875 19.5 15.046875 L 15 15.046875 C 14.171875 15.046875 13.5 15.71875 13.5 16.546875 C 13.5 17.375 13.5 19.453125 13.5 19.453125 L 34.5 19.453125 C 34.5 19.453125 34.5 17.375 34.5 16.546875 Z M 24 13.453125 C 23.171875 13.453125 22.5 12.78125 22.5 11.953125 C 22.5 11.125 23.171875 10.453125 24 10.453125 C 24.828125 10.453125 25.5 11.125 25.5 11.953125 C 25.5 12.78125 24.828125 13.453125 24 13.453125 Z M 42 16.546875 L 36 16.453125 L 36.03125 21.109375 L 12 21.109375 L 12 16.640625 L 6 16.546875 C 4.34375 16.546875 3 17.890625 3 19.546875 L 3 40.546875 C 3 42.203125 4.34375 43.546875 6 43.546875 L 42 43.546875 C 43.65625 43.546875 45 42.203125 45 40.546875 L 45 19.546875 C 45 17.890625 43.65625 16.546875 42 16.546875 Z M 15 25.265625 C 16.8125 25.265625 18.28125 27.195312 18.28125 29.578125 C 18.28125 31.960938 16.8125 33.890625 15 33.890625 C 13.1875 33.890625 11.71875 31.960938 11.71875 29.578125 C 11.71875 27.195312 13.1875 25.265625 15 25.265625 Z M 8.5 38.96875 C 8.5 38.96875 8.855469 36.117188 9.664062 35.578125 C 10.472656 35.039062 12.800781 34.679688 12.800781 34.679688 C 12.800781 34.679688 14.308594 36.292969 14.949219 36.292969 C 15.589844 36.292969 17.101562 34.679688 17.101562 34.679688 C 17.101562 34.679688 19.429688 35.035156 20.238281 35.578125 C 21.1875 36.210938 21.421875 38.96875 21.421875 38.96875 Z M 39 37.546875 L 25.5 37.546875 L 25.5 36.046875 L 39 36.046875 Z M 39 34.546875 L 25.5 34.546875 L 25.5 33.046875 L 39 33.046875 Z M 39 31.546875 L 25.5 31.546875 L 25.5 30.046875 L 39 30.046875 Z M 39 28.546875 L 25.5 28.546875 L 25.5 27.046875 L 39 27.046875 Z M 39 28.546875 "/>
  </g>
</svg>